{"title":"Zoe Gone_720p.HDTV.x264_TTL","uid":9868166,"size":2532174127,"categoryP":"video","categoryS":"hd___tv_shows","magnet":"?xt=urn:btih:363ce60373327e4550115b8eb9c992f1a577e4df&amp;dn=Zoe+Gone_720p.HDTV.x264_TTL&amp;tr=udp%3A%2F%2Ftracker.openbittorrent.com%3A80&amp;tr=udp%3A%2F%2Fopen.demonii.com%3A1337&amp;tr=udp%3A%2F%2Ftracker.coppersurfer.tk%3A6969&amp;tr=udp%3A%2F%2Fexodus.desync.com%3A6969","seeders":0,"leechers":1,"uploader":"thetorrentlord","files":-1,"time":1396388616,"description":" &lt;a href=&quot;http://www.mylifetime.com/movies/&quot; rel=&quot;nofollow&quot; target=&quot;_NEW&quot;&gt;http://www.mylifetime.com/movies/&lt;/a&gt;\t\t\t\t\t\t\t\t\n\n\t\t\t\t\t\t\t\t\t\t\t\t\n\n\t\t\t\t\t\t\t\t\t\t\t\t\n\n\t\t\t\t\t\t\t\t\t\t\t\t\n\n\t\t\t\t\t\t\t\t\t\t\t\n\nGrab a sample and check it out. \t\t\t\t\t\t\t\t\n\n\t\t\t\t\t\t\t\t\t\t\t\t\n\nIf you like it then go for it.\t\t\t\t\t\t\t\t\t\n\n\t\t\t\t\t\t\t\t\t\t\t\t\n\n\t\t\t\t\t\t\t\t\t\t\t\t\n\n\t\t\t\t\t\t\t\t\t\t\t\n\nEnjoy and and please share.\t\t\t\t\t\t\t\t\t\n\n\t\t\t\t\t\t\t\t\t\t\t\t\n\n\t\t\t\t\t\t\t\t\t\t\t\t\n\nTTLTTLTTLTTLTTLTTLTTLTTLTTLTTLTTLTTLTTLTTLTTLTTLTTLTTLTTL\t\t\t\t\t\n\n\t\t\t\t\t\t\t\t\t\t\t\t\n\n\t\t\t\t\t\t\t\t\t\t\t\t\n\n\t\t\t\t\t\t\t\t\t\t\t\t\n\nZoe Gone_720p.HDTV.x264_TTL.mkv\nFormat                           : Matroska\nFile size                        : 2.33 GiB\nDuration                         : 1h 24mn\nOverall bit rate                 : 3 943 Kbps\nWriting application              : HandBrake 0.9.5\nWriting library                  : libmkv 0.6.4.1\n\nVideo\nID                               : 1\nFormat                           : MPEG-4 Visual\nFormat profile                   : Simple@L1\nFormat settings, BVOP            : No\nFormat settings, QPel            : No\nFormat settings, GMC             : No warppoints\nFormat settings, Matrix          : Default (H.263)\nCodec ID                         : V_MPEG4/ISO/ASP\nCodec ID/Info                    : Advanced Simple Profile\nDuration                         : 1h 24mn\nBit rate                         : 3 673 Kbps\nWidth                            : 1 280 pixels\nHeight                           : 720 pixels\nDisplay aspect ratio             : 16:9\nFrame rate                       : 29.970 fps\nResolution                       : 8 bits\nColorimetry                      : 4:2:0\nScan type                        : Progressive\nBits/(Pixel*Frame)               : 0.133\nStream size                      : 2.16 GiB (93%)\nWriting library                  : Lavc52.94.3\n\nAudio\nID                               : 2\nFormat                           : AC-3\nFormat/Info                      : Audio Coding 3\nCodec ID                         : A_AC3\nDuration                         : 1h 24mn\nBit rate mode                    : Constant\nBit rate                         : 192 Kbps\nChannel(s)                       : 2 channels\nChannel positions                : L R\nSampling rate                    : 48.0 KHz\nStream size                      : 116 MiB (5%)\n\n","torrent":{"xt":"urn:btih:363ce60373327e4550115b8eb9c992f1a577e4df","amp;dn":"Zoe+Gone_720p.HDTV.x264_TTL","amp;tr":["udp%3A%2F%2Ftracker.openbittorrent.com%3A80","udp%3A%2F%2Fopen.demonii.com%3A1337","udp%3A%2F%2Ftracker.coppersurfer.tk%3A6969","udp%3A%2F%2Fexodus.desync.com%3A6969"],"infoHash":"363ce60373327e4550115b8eb9c992f1a577e4df","infoHashBuffer":{"type":"Buffer","data":[54,60,230,3,115,50,126,69,80,17,91,142,185,201,146,241,165,119,228,223]},"announce":[],"urlList":[]}}